<svg height="637pt" viewBox="0 0 637.99183 637" width="637pt" xmlns="http://www.w3.org/2000/svg"><path d="m233.953125 276.964844c0 11.742187-9.523437 21.261718-21.265625 21.261718s-21.261719-9.519531-21.261719-21.261718c0-11.746094 9.519531-21.265625 21.261719-21.265625s21.265625 9.519531 21.265625 21.265625zm0 0"/><path d="m329.636719 372.648438c0 11.742187-9.519531 21.261718-21.261719 21.261718s-21.265625-9.519531-21.265625-21.261718c0-11.742188 9.523437-21.261719 21.265625-21.261719s21.261719 9.519531 21.261719 21.261719zm0 0"/><path d="m382.796875 245.066406c0 17.617188-14.28125 31.898438-31.894531 31.898438-17.617188 0-31.898438-14.28125-31.898438-31.898438 0-17.613281 14.28125-31.894531 31.898438-31.894531 17.613281 0 31.894531 14.28125 31.894531 31.894531zm0 0"/><path d="m595.429688 276.964844c-19.386719-.015625-36.324219 13.113281-41.144532 31.894531h-33.816406c-2.394531-48.953125-21.714844-95.550781-54.660156-131.835937l23.730468-23.601563c8.738282 5.671875 18.929688 8.699219 29.34375 8.71875 29.324219-.082031 53.027344-23.921875 52.945313-53.242187-.082031-29.324219-23.917969-53.027344-53.242187-52.945313-29.324219.078125-53.027344 23.917969-52.945313 53.242187.027344 10.359376 3.089844 20.488282 8.800781 29.128907l-23.601562 23.730469c-36.28125-32.945313-82.882813-52.265626-131.832032-54.65625v-23.1875c22.738282-5.875 36.414063-29.070313 30.542969-51.808594-5.871093-22.742188-29.066406-36.417969-51.808593-30.546875-22.742188 5.871093-36.417969 29.070312-30.542969 51.808593 3.867187 14.980469 15.5625 26.679688 30.542969 30.546876v23.1875c-48.949219 2.390624-95.550782 21.710937-131.832032 54.65625l-23.605468-23.730469c16.265624-24.511719 9.582031-57.566407-14.933594-73.832031-24.511719-16.265626-57.566406-9.578126-73.832032 14.933593-16.261718 24.511719-9.578124 57.570313 14.933594 73.832031 8.714844 5.78125 18.9375 8.871094 29.394532 8.882813 10.414062-.019531 20.605468-3.046875 29.339843-8.71875l23.730469 23.601563c-32.941406 36.285156-52.261719 82.882812-54.65625 131.835937h-23.398438c-5.875-19.695313-26.597656-30.902344-46.292968-25.027344-19.695313 5.871094-30.902344 26.597657-25.027344 46.289063 5.871094 19.695312 26.597656 30.902344 46.289062 25.03125 12.03125-3.589844 21.441407-13 25.03125-25.03125h23.386719c2.394531 48.953125 21.714844 95.550781 54.660157 131.835937l-23.71875 23.601563c-24.484376-16.203125-57.46875-9.488282-73.667969 14.996094-13.960938 21.097656-11.121094 49.109374 6.792969 66.976562 20.636718 20.753906 54.195312 20.851562 74.953124.210938.070313-.070313.140626-.140626.210938-.210938 17.84375-17.855469 20.6875-45.792969 6.804688-66.875l23.605468-23.730469c36.28125 32.945313 82.882813 52.265625 131.832032 54.65625v23.1875c-22.742188 5.875-36.417969 29.070313-30.542969 51.808594 5.871093 22.742187 29.066406 36.417969 51.808593 30.546875 22.738282-5.871094 36.414063-29.066406 30.542969-51.808594-3.867187-14.980468-15.566406-26.679687-30.542969-30.546875v-23.1875c48.949219-2.390625 95.550782-21.710937 131.832032-54.65625l23.601562 23.730469c-16.15625 24.566406-9.339844 57.582031 15.226563 73.742188 8.675781 5.707031 18.832031 8.75 29.214843 8.761718 14.097657.027344 27.617188-5.605468 37.53125-15.628906 20.785157-20.734375 20.832032-54.390625.101563-75.179688-17.867187-17.910156-45.878906-20.753906-66.976563-6.792968l-23.730468-23.601563c32.945312-36.285156 52.265625-82.882812 54.660156-131.832031h33.816406c5.875 22.738281 29.070313 36.414062 51.808594 30.542969 22.742188-5.871094 36.417969-29.066407 30.546875-51.808594-4.851563-18.789063-21.804687-31.910156-41.210937-31.894531zm-244.527344-85.054688c29.355468 0 53.15625 23.800782 53.15625 53.15625 0 29.359375-23.800782 53.160156-53.15625 53.160156-29.359375 0-53.160156-23.800781-53.160156-53.160156.035156-29.34375 23.8125-53.121094 53.160156-53.15625zm-149.695313 184.777344c-.515625 1.300781-1.273437 2.492188-2.234375 3.507812-2.039062 1.941407-4.734375 3.042969-7.546875 3.085938-1.390625-.019531-2.761719-.308594-4.042969-.851562-1.285156-.539063-2.472656-1.292969-3.507812-2.234376-.960938-1.015624-1.71875-2.207031-2.230469-3.507812-.546875-1.277344-.835937-2.652344-.851562-4.039062.039062-2.816407 1.140625-5.511719 3.082031-7.550782 1.035156-.9375 2.222656-1.691406 3.507812-2.230468 3.964844-1.605469 8.503907-.730469 11.589844 2.230468 1.941406 2.039063 3.042969 4.734375 3.082032 7.550782-.015626 1.390624-.304688 2.761718-.847657 4.039062zm53.15625 63.792969c-.511719 1.300781-1.269531 2.492187-2.230469 3.507812-2.039062 1.941407-4.734374 3.042969-7.550781 3.082031-1.386719-.015624-2.761719-.304687-4.039062-.851562-1.289063-.539062-2.472657-1.292969-3.507813-2.230469-.960937-1.019531-1.71875-2.207031-2.234375-3.507812-.542969-1.28125-.832031-2.652344-.847656-4.042969.039063-2.8125 1.140625-5.507812 3.082031-7.546875 1.03125-.9375 2.21875-1.691406 3.507813-2.234375 3.964843-1.601562 8.503906-.730469 11.585937 2.234375 1.941406 2.039063 3.042969 4.734375 3.085938 7.546875-.015625 1.390625-.304688 2.765625-.851563 4.042969zm-41.675781-120.988281c-23.488281 0-42.527344-19.042969-42.527344-42.527344 0-23.488282 19.042969-42.527344 42.527344-42.527344 23.488281 0 42.527344 19.039062 42.527344 42.527344 0 23.484375-19.039063 42.527344-42.527344 42.527344zm53.160156 53.15625c0-23.488282 19.039063-42.527344 42.527344-42.527344 23.484375 0 42.523438 19.042968 42.523438 42.527344 0 23.488281-19.039063 42.527343-42.523438 42.527343-23.488281 0-42.527344-19.039062-42.527344-42.527343zm42.527344 116.949218c-5.871094 0-10.632812-4.757812-10.632812-10.632812 0-5.871094 4.761718-10.628906 10.632812-10.628906 82.167969-.089844 148.753906-66.679688 148.84375-148.847657 0-5.871093 4.757812-10.628906 10.632812-10.628906 5.871094 0 10.632813 4.757813 10.632813 10.628906-.113281 93.902344-76.207031 170-170.109375 170.109375zm0 0"/></svg>